<svg xmlns="http://www.w3.org/2000/svg" version="1.1" x="0px" y="0px" viewBox="0 0 100 100" style="enable-background:new 0 0 100 100;" xml:space="preserve">
    <path d="M80.2,22.8c-2.2,0.1-4.4,0.3-6.6,0.7c-3.9,0.7-6.5,1.7-9.6,2.8c-2.3,0.8-4.8,1.8-8.3,2.7c-1.8,0.5-3.6,0.9-5.4,1.3    c-0.1,0-0.3,0-0.3-0.2l0,0c-0.1-0.1,0-0.3,0.1-0.4c3-2.7,6.1-5.3,9.2-7.8c4.5-3.6,9.1-7.1,13.8-10.5c0.3-0.2,0.3-0.5,0.1-0.8    c-0.2-0.3-0.5-0.3-0.8-0.1C67.6,13.9,63,17.4,58.5,21c-3.1,2.5-6.2,5.1-9.2,7.8c-0.2,0.2-0.4,0.2-0.6,0.1l0,0    c-0.2-0.1-0.3-0.3-0.3-0.5c0.3-4,0.8-7.9,1.6-11.8c0.9-4.5,2.2-9,3.8-13.3c0.1-0.3,0-0.6-0.3-0.7c-0.3-0.1-0.6,0-0.7,0.3    c-1.6,4.4-2.9,8.9-3.8,13.5c-0.8,3.8-1.3,7.7-1.6,11.5c0,0.4-0.3,0.8-0.7,0.9l0,0c-0.3,0.1-0.7,0.1-0.9-0.1    c-0.6-0.4-1.2-0.7-1.7-1.1c-4.5-3-7.7-5.5-9.6-7c-0.3-0.2-0.5-0.4-0.8-0.6c-3.8-3-8.2-5.8-13.2-8.2c-0.3-0.1-0.6,0-0.7,0.3    c-0.1,0.3,0,0.6,0.3,0.7c4.9,2.4,9.2,5.1,13,8.1c0.2,0.2,0.5,0.4,0.8,0.6c1.9,1.5,5.1,4.1,9.6,7.1c0.6,0.4,1.3,0.8,1.9,1.2    c0,0,0.1,0.1,0,0.1l0,0c0,0-0.1,0.1-0.1,0c-1.2-0.2-2.5-0.5-3.7-0.8c-2-0.5-7.2-2.2-13.2-5.9c-2.8-1.8-5.5-3.9-8-6.2    c-0.2-0.2-0.6-0.2-0.8,0c-0.2,0.2-0.2,0.6,0,0.8c2.5,2.4,5.3,4.5,8.2,6.3c6.1,3.9,11.5,5.5,13.5,6.1c1.1,0.3,2.3,0.6,3.4,0.8    c0.1,0,0.2,0.1,0.1,0.2c0,0,0,0,0,0c0,0.1-0.1,0.1-0.2,0.1c-2.7-0.1-6.6,0.3-10.7,2.4c-3,1.5-5.7,3.8-7.7,6.5    c-0.2,0.2-0.1,0.6,0.1,0.8c0.1,0.1,0.2,0.1,0.3,0.1c0.2,0,0.3-0.1,0.4-0.2c2-2.6,4.5-4.7,7.4-6.1c3.4-1.7,6.7-2.2,9.2-2.3    c0.4,0,0.8,0.4,0.7,0.8c0,0,0,0,0,0c0,0.2-0.1,0.3-0.3,0.4c-1.8,1.1-3.6,2.2-5.4,3.2c-4.7,2.6-9.7,4.7-14.9,6.4    c-0.3,0.1-0.5,0.4-0.4,0.7c0.1,0.2,0.3,0.4,0.5,0.4c0.1,0,0.1,0,0.2,0c5.2-1.7,10.3-3.9,15.1-6.5c1.6-0.9,3.1-1.8,4.7-2.7    c0,0,0,0,0,0c-0.9,4-1.6,8-2,12.1c-0.6,5.6-0.6,11.3-0.1,16.9c0.5,5.6,1.5,11.2,3,16.6c1.5,5.4,3.5,10.7,5.9,15.7    c0.6,1.1,2.1,1.5,3.1,0.6c0.6-0.6,0.8-1.5,0.4-2.2c-2.2-4.9-4-10-5.3-15.1c-1.3-5.2-2.1-10.5-2.5-15.8c-0.3-5.3-0.2-10.7,0.5-16    c0.6-5,1.6-9.9,3.1-14.7c0,0,0,0,0,0c4.3,1.1,8.5,2.7,12.4,4.8c6.3,3.2,12,7.5,16.9,12.7c0.1,0.1,0.3,0.2,0.4,0.2    c0.1,0,0.3-0.1,0.4-0.2c0.2-0.2,0.2-0.6,0-0.8c-5-5.3-10.8-9.6-17.2-12.9C49.7,30.2,45.4,33,56,30c3.5-1,6.1-1.9,8.4-2.8    c3-1.1,5.7-2.1,9.4-2.7c2.1-0.4,4.3-0.6,6.5-0.7c0.3,0,0.6-0.3,0.5-0.6C80.8,23,80.5,22.7,80.2,22.8z"/>
</svg>